HIERARCHY
ROOT Hip
{
	OFFSET 0 1.131 0.0052
	CHANNELS 6 Xposition Yposition Zposition Xrotation Yrotation Zrotation
	JOINT Abdomen
	{
		OFFSET 0 -0.047353 -0.05
		CHANNELS 3 Xrotation Zrotation Yrotation
		JOINT Chest
		{
			OFFSET 0 0.132153 0.007439
			CHANNELS 3 Xrotation Zrotation Yrotation
			JOINT Neck
			{
				OFFSET 0 0.3078 0.006161
				CHANNELS 3 Xrotation Zrotation Yrotation
				JOINT Head_comp
				{
					OFFSET 0 0.0884 0.013
					CHANNELS 3 Xrotation Yrotation Zrotation
					End Site
					{
						OFFSET -0 0.156 0.0624
					}
				}
			}
			JOINT Left_Collar
			{
				OFFSET 0.02282 0.250342 0.017193
				CHANNELS 2 Yrotation Zrotation
				JOINT Left_Shoulder
				{
					OFFSET 0.15421 0 0
					CHANNELS 3 Xrotation Yrotation Zrotation
					JOINT Left_Forearm
					{
						OFFSET 0.265212 0 0
						CHANNELS 2 Yrotation Xrotation
						JOINT Left_Hand
						{
							OFFSET 0.27571 0 0
							CHANNELS 2 Zrotation Yrotation
							JOINT L1ProxPhalanx
							{
								OFFSET 0.014142 0.001733 0.014142
								CHANNELS 3 Yrotation Zrotation Xrotation
								JOINT L1MidPhalanx
								{
									OFFSET 0.04 0 0
									CHANNELS 1 Zrotation
									JOINT L1DistPhalanx
									{
										OFFSET 0.035 0 0
										CHANNELS 1 Zrotation
										End Site
										{
											OFFSET 0.029 -0 -0
										}
									}
								}
							}
							JOINT L2ProxPhalanx
							{
								OFFSET 0.0821037 0.001578 0.0219996
								CHANNELS 2 Yrotation Zrotation
								JOINT L2MidPhalanx
								{
									OFFSET 0.04 0 0
									CHANNELS 1 Zrotation
									JOINT L2DistPhalanx
									{
										OFFSET 0.028 0 0
										CHANNELS 1 Zrotation
										End Site
										{
											OFFSET 0.02 -0 -0
										}
									}
								}
							}
							JOINT L3ProxPhalanx
							{
								OFFSET 0.083 0 0
								CHANNELS 2 Yrotation Zrotation
								JOINT L3MidPhalanx
								{
									OFFSET 0.053 0 0
									CHANNELS 1 Zrotation
									JOINT L3DistPhalanx
									{
										OFFSET 0.03 0 0
										CHANNELS 1 Zrotation
										End Site
										{
											OFFSET 0.023 -0 -0
										}
									}
								}
							}
							JOINT L4ProxPhalanx
							{
								OFFSET 0.077274 -0.000761 -0.0207055
								CHANNELS 2 Yrotation Zrotation
								JOINT L4MidPhalanx
								{
									OFFSET 0.05 0 0
									CHANNELS 1 Zrotation
									JOINT L4DistPhalanx
									{
										OFFSET 0.03 0 0
										CHANNELS 1 Zrotation
										End Site
										{
											OFFSET 0.023 -0 -0
										}
									}
								}
							}
							JOINT L5ProxPhalanx
							{
								OFFSET 0.0675499 -0.001644 -0.039
								CHANNELS 2 Yrotation Zrotation
								JOINT L5MidPhalanx
								{
									OFFSET 0.04 0 0
									CHANNELS 1 Zrotation
									JOINT L5DistPhalanx
									{
										OFFSET 0.021 0 0
										CHANNELS 1 Zrotation
										End Site
										{
											OFFSET 0.022 -0 -0
										}
									}
								}
							}
						}
					}
				}
			}
			JOINT Right_Collar
			{
				OFFSET -0.02282 0.250342 0.017193
				CHANNELS 2 Yrotation Zrotation
				JOINT Right_Shoulder
				{
					OFFSET -0.15421 0 0
					CHANNELS 3 Xrotation Yrotation Zrotation
					JOINT Right_Forearm
					{
						OFFSET -0.265212 0 0
						CHANNELS 2 Yrotation Xrotation
						JOINT Right_Hand
						{
							OFFSET -0.27571 3e-006 0
							CHANNELS 2 Zrotation Yrotation
							JOINT R1ProxPhalanx
							{
								OFFSET -0.014142 0.001733 0.014142
								CHANNELS 3 Yrotation Zrotation Xrotation
								JOINT R1MidPhalanx
								{
									OFFSET -0.04 0 0
									CHANNELS 1 Zrotation
									JOINT R1DistPhalanx
									{
										OFFSET -0.035 0 0
										CHANNELS 1 Zrotation
										End Site
										{
											OFFSET -0.029 -0 -0
										}
									}
								}
							}
							JOINT R2ProxPhalanx
							{
								OFFSET -0.0821037 0.001578 0.0219996
								CHANNELS 2 Yrotation Zrotation
								JOINT R2MidPhalanx
								{
									OFFSET -0.04 0 0
									CHANNELS 1 Zrotation
									JOINT R2DistPhalanx
									{
										OFFSET -0.028 0 0
										CHANNELS 1 Zrotation
										End Site
										{
											OFFSET -0.02 -0 -0
										}
									}
								}
							}
							JOINT R3ProxPhalanx
							{
								OFFSET -0.083 0 0
								CHANNELS 2 Yrotation Zrotation
								JOINT R3MidPhalanx
								{
									OFFSET -0.053 0 0
									CHANNELS 1 Zrotation
									JOINT R3DistPhalanx
									{
										OFFSET -0.03 0 0
										CHANNELS 1 Zrotation
										End Site
										{
											OFFSET -0.023 -0 -0
										}
									}
								}
							}
							JOINT R4ProxPhalanx
							{
								OFFSET -0.077274 -0.000761 -0.0207055
								CHANNELS 2 Yrotation Zrotation
								JOINT R4MidPhalanx
								{
									OFFSET -0.05 0 0
									CHANNELS 1 Zrotation
									JOINT R4DistPhalanx
									{
										OFFSET -0.03 0 0
										CHANNELS 1 Zrotation
										End Site
										{
											OFFSET -0.023 -0 -0
										}
									}
								}
							}
							JOINT R5ProxPhalanx
							{
								OFFSET -0.0675499 -0.001644 -0.039
								CHANNELS 2 Yrotation Zrotation
								JOINT R5MidPhalanx
								{
									OFFSET -0.04 0 0
									CHANNELS 1 Zrotation
									JOINT R5DistPhalanx
									{
										OFFSET -0.021 0 0
										CHANNELS 1 Zrotation
										End Site
										{
											OFFSET -0.022 -0 -0
										}
									}
								}
							}
						}
					}
				}
			}
		}
	}
	JOINT Left_Thigh
	{
		OFFSET 0.1118 -0.1612 -0.0442
		CHANNELS 3 Xrotation Zrotation Yrotation
		JOINT Left_Shin
		{
			OFFSET 0 -0.477856 0
			CHANNELS 1 Xrotation
			JOINT Left_Foot
			{
				OFFSET 0 -0.431952 0
				CHANNELS 2 Xrotation Zrotation
				JOINT Left_Toe
				{
					OFFSET 0 -0.0442 0.119
					CHANNELS 1 Xrotation
					End Site
					{
						OFFSET -0 -0 0.07
					}
				}
			}
		}
	}
	JOINT Right_Thigh
	{
		OFFSET -0.1118 -0.1612 -0.0442
		CHANNELS 3 Xrotation Zrotation Yrotation
		JOINT Right_Shin
		{
			OFFSET 0 -0.477856 0
			CHANNELS 1 Xrotation
			JOINT Right_Foot
			{
				OFFSET 0 -0.431952 0
				CHANNELS 2 Xrotation Zrotation
				JOINT Right_Toe
				{
					OFFSET 0 -0.0442 0.119
					CHANNELS 1 Xrotation
					End Site
					{
						OFFSET -0 -0 0.07
					}
				}
			}
		}
	}
}
MOTION
Frames: 6
Frame Time: 0.009975
-0.107678 -0.0600193 0.0332863 1.08603e-012 -3.23586e-008 -5.10928e-006 0 -0 0 0 -0 0 0 -0 0 -0.711444 0.308744 7.42396e-013 -5.63375 -14.161 -21.9906 -40.9111 -50.8465 -39.2992 9.14369 6.73536 2.22703 -83.7875 19.5479 80.5456 -21.4179 -21.8783 4.79232 -0.259759 -10.0643 -2.30189 3.46391 -1.78336 -4.79701 -1.74254 0.787243 -11.7286 7.92034 0.247238 1.14608 -38.0874 39.2383 12.1384 10.0325 42.8387 -11.6068 34.8433 38.3786 46.3841 3.67146 -0.161835 -3.46216 74.7139 -7.1 87.4681 14.6931 8.87249 -4.36571 0.611553 7.98542 6.37857 -6.42656 1.77058 3.71717 4.7815 -3.15395 10.1037 0.365005 -3.26116 -3.51568 36.1046 -39.7495 -4.45563 -0.371237 -0.259556 0.00168177 0.0240216 0.347212 0.259567 0 -0.359832 -0.259557 0.0016301 2.41484e-006 0.359826 0.259567 0 
-0.107638 -0.0600187 0.0334139 -1.60067e-012 -3.18146e-008 -5.10928e-006 0 -0 0 0 -0 0 0 -0 0 -0.711449 0.308621 1.7145e-012 -5.59255 -14.0578 -21.2371 -40.4248 -50.3904 -40.7907 9.07683 6.68611 2.21075 -82.7571 18.4625 80.4786 -21.0528 -21.6671 4.54183 -0.614843 -10.531 -2.54762 3.37378 -2.2815 -5.09175 -2.10099 0.967919 -11.9542 6.90841 -0.182176 1.50118 -37.6562 37.4898 11.0514 9.95996 42.5456 -11.4693 34.5622 38.3846 46.8966 3.64491 -0.160664 -3.43712 73.9077 -6.33038 87.1662 14.9463 9.30161 -3.98243 0.997491 8.44665 6.6692 -6.28567 2.2236 4.35066 5.29323 -3.27403 10.5553 1.063 -2.66873 -3.61027 35.8992 -38.1075 -3.69987 -0.363199 -0.26208 0.00166132 0.0240216 0.339174 0.262091 0 -0.351794 -0.262081 0.00160915 1.21949e-006 0.35179 0.262091 0 
-0.107589 -0.0600178 0.0335974 2.10501e-013 -3.09189e-008 -5.10929e-006 0 -0 0 0 -0 0 0 -0 0 -0.711457 0.308487 3.10422e-012 -5.54544 -13.949 -20.3349 -39.8502 -49.9146 -42.4437 9.00037 6.62979 2.19213 -81.7267 17.3772 80.4115 -20.6877 -21.4559 4.29133 -0.969928 -10.9976 -2.79335 3.28364 -2.77965 -5.38648 -2.45945 1.1486 -12.1799 5.89648 -0.611591 1.85628 -37.225 35.7412 9.96434 9.87684 42.2122 -11.215 34.1599 38.3767 47.6265 3.61449 -0.159323 -3.40844 73.1015 -5.56076 86.8643 15.1994 9.73072 -3.59916 1.38343 8.90787 6.95982 -6.14479 2.67662 4.98415 5.80495 -3.39411 11.007 1.761 -2.0763 -3.70487 35.6938 -36.4655 -2.94412 -0.351642 -0.26516 0.00162732 0.0240216 0.327617 0.26517 0 -0.340237 -0.265161 0.00157454 0 0.340234 0.26517 0 
-0.107531 -0.0600168 0.0338252 1.15945e-012 -2.97448e-008 -5.10929e-006 0 -0 0 0 -0 0 0 -0 0 -0.711468 0.308329 4.75001e-012 -5.49281 -13.8342 -19.3571 -39.2321 -49.4552 -44.1484 8.91494 6.56686 2.17132 -80.6963 16.2918 80.3445 -20.3227 -21.2447 4.04084 -1.32501 -11.4643 -3.03909 3.1935 -3.27779 -5.68122 -2.81791 1.32927 -12.4055 4.88455 -1.041 2.21138 -36.7938 33.9927 8.8773 9.78381 41.8414 -10.8598 33.6623 38.3683 48.5279 3.58045 -0.157823 -3.37633 72.2953 -4.79114 86.5624 15.4525 10.1598 -3.21588 1.76937 9.36909 7.25045 -6.00391 3.12964 5.61763 6.31667 -3.5142 11.4586 2.459 -1.48387 -3.79947 35.4884 -34.8235 -2.18836 -0.3373 -0.268867 0.00158272 0.0240216 0.313274 0.268876 0 -0.325895 -0.268867 0.0015292 0 0.325891 0.268876 0 
-0.107463 -0.0600156 0.0340887 -1.53606e-012 -2.83507e-008 -5.1093e-006 0 -0 0 0 -0 0 0 -0 0 -0.711482 0.308145 6.4479e-012 -5.43498 -13.7131 -18.3356 -38.5888 -49.0231 -45.868 8.82109 6.49773 2.14846 -79.6659 15.2065 80.2775 -19.9576 -21.0335 3.79034 -1.6801 -11.9309 -3.28482 3.10336 -3.77594 -5.97596 -3.17636 1.50995 -12.6311 3.87261 -1.47042 2.56648 -36.3627 32.2442 7.79026 9.68149 41.4356 -10.4209 33.0923 38.3694 49.5589 3.543 -0.156172 -3.34102 71.4892 -4.02151 86.2605 15.7057 10.5889 -2.8326 2.15531 9.83032 7.54107 -5.86303 3.58265 6.25112 6.8284 -3.63428 11.9102 3.157 -0.891443 -3.89407 35.283 -33.1815 -1.43261 -0.320705 -0.273139 0.00152872 0.0240216 0.29668 0.273148 0 -0.309301 -0.273139 0.00147436 1.66486e-006 0.309296 0.273148 0 
-0.107387 -0.0600144 0.0343825 -1.24792e-012 -2.67736e-008 -5.10931e-006 0 -0 0 0 -0 0 0 -0 0 -0.711498 0.307938 8.14208e-012 -5.37229 -13.5854 -17.2846 -37.9282 -48.6222 -47.5883 8.71934 6.42278 2.12368 -78.6355 14.1211 80.2104 -19.5925 -20.8223 3.53985 -2.03518 -12.3976 -3.53055 3.01322 -4.27408 -6.27069 -3.53482 1.69063 -12.8568 2.86068 -1.89983 2.92158 -35.9315 30.4957 6.70321 9.57044 40.9969 -9.91337 32.4676 38.3869 50.6867 3.50237 -0.154381 -3.3027 70.683 -3.25189 85.9586 15.9588 11.0181 -2.44933 2.54124 10.2915 7.8317 -5.72215 4.03567 6.88461 7.34012 -3.75437 12.3618 3.855 -0.299013 -3.98866 35.0777 -31.5395 -0.676852 -0.302199 -0.277907 0.00146561 0.0240216 0.278174 0.277916 0 -0.290795 -0.277907 0.00141029 3.41509e-006 0.290789 0.277916 0 
